<?xml version="1.0" encoding="UTF-8" standalone="no"?>
<!DOCTYPE svg PUBLIC "-//W3C//DTD SVG 1.1//EN" "http://www.w3.org/Graphics/SVG/1.1/DTD/svg11.dtd">
<svg width="100%" height="100%" viewBox="0 0 2991 1404" version="1.1" xmlns="http://www.w3.org/2000/svg" xmlns:xlink="http://www.w3.org/1999/xlink" xml:space="preserve" xmlns:serif="http://www.serif.com/" style="fill-rule:evenodd;clip-rule:evenodd;stroke-linecap:round;stroke-linejoin:round;stroke-miterlimit:1.5;">
    <g id="court" transform="matrix(0.867579,0,0,1,-63.9296,-95.821)">
        <rect x="73.687" y="95.821" width="3447.38" height="1403.26" style="fill:none;"/>
        <clipPath id="_clip1">
            <rect x="73.687" y="95.821" width="3447.38" height="1403.26"/>
        </clipPath>
        <g clip-path="url(#_clip1)">
            <g transform="matrix(1.15263,0,0,1,-190.196,95)">
                <rect x="0.687" y="0.821" width="3447.38" height="1403.26"/>
            </g>
            <g id="blue-hab-1" transform="matrix(1.58688,0,0,1.16247,-590.5,-126.235)">
                <rect x="730.623" y="552.385" width="135.168" height="496.688" style="fill:rgb(0,0,255);stroke:white;stroke-width:0.78px;"/>
            </g>
            <g id="blue-hab-2" transform="matrix(1.15263,0,0,0.899596,-273.226,403.898)">
                <rect x="544.532" y="552.385" width="186.091" height="165.711" style="fill:rgb(0,0,255);stroke:white;stroke-width:1.05px;"/>
            </g>
            <g id="blue-hab-3" transform="matrix(1.15263,0,0,0.899596,-273.226,62.3632)">
                <rect x="544.532" y="552.385" width="186.091" height="165.711" style="fill:rgb(0,0,255);stroke:white;stroke-width:1.05px;"/>
            </g>
            <g id="blue-hab-4" transform="matrix(1.15263,0,0,1.16143,-273.226,66.8006)">
                <rect x="544.532" y="552.385" width="186.091" height="165.711" style="fill:rgb(0,0,255);stroke:white;stroke-width:0.92px;"/>
            </g>
            <g id="blue-side-1">
                <g id="player-hatch" transform="matrix(1.15263,0,0,0.806735,-265.342,-50.8761)">
                    <rect x="542.106" y="181.84" width="176.062" height="202.694" style="fill:rgb(255,230,0);stroke:white;stroke-width:1.1px;"/>
                </g>
                <g id="player-cargo" transform="matrix(1.15263,0,0,0.4385,-265.342,178.277)">
                    <rect x="542.106" y="181.84" width="176.062" height="202.694" style="fill:rgb(255,111,0);stroke:white;stroke-width:1.3px;"/>
                </g>
                <g id="depot" transform="matrix(1.21612,0,0,0.4385,-304.487,391.021)">
                    <rect x="542.106" y="181.84" width="176.062" height="202.694" style="fill:rgb(255,111,0);"/>
                    <g transform="matrix(0.947791,0,0,2.2805,386.647,-642.344)">
                        <text x="165.798px" y="422.582px" style="font-family:'Arial-BoldMT', 'Arial', sans-serif;font-weight:700;font-size:46.761px;fill:rgb(242,242,242);">D<tspan x="204.244px 240.109px 275.975px 317.023px " y="422.582px 422.582px 422.582px 422.582px ">EPOT</tspan></text>
                    </g>
                    <rect x="542.106" y="181.84" width="176.062" height="202.694" style="fill:none;stroke:white;stroke-width:1.24px;"/>
                </g>
                <g id="peek" transform="matrix(0.549338,0,0,3.00567,77.657,-511.59)">
                    <rect x="0.687" y="263.306" width="441.453" height="24.583" style="fill:white;"/>
                </g>
            </g>
            <g id="red-side-1" transform="matrix(-1,0,-0,1,3594.75,-6.84041)">
                <g id="player-hatch1" serif:id="player-hatch" transform="matrix(1.15263,0,0,0.806735,-300.326,-44.0357)">
                    <rect x="542.106" y="181.84" width="176.062" height="202.694" style="fill:rgb(255,230,0);stroke:white;stroke-width:1.1px;"/>
                </g>
                <g id="player-cargo1" serif:id="player-cargo" transform="matrix(1.15263,0,0,0.439155,-300.326,184.998)">
                    <rect x="542.106" y="181.84" width="176.062" height="202.694" style="fill:rgb(255,111,0);stroke:white;stroke-width:1.29px;"/>
                </g>
                <g id="depot1" serif:id="depot" transform="matrix(1.20459,0,0,0.439155,-325.955,397.743)">
                    <rect x="542.106" y="181.84" width="176.062" height="202.694" style="fill:rgb(255,111,0);"/>
                    <g transform="matrix(-0.956864,0,0,2.2771,874.693,-637.992)">
                        <text x="165.798px" y="422.582px" style="font-family:'Arial-BoldMT', 'Arial', sans-serif;font-weight:700;font-size:46.761px;fill:rgb(242,242,242);">D<tspan x="204.244px 240.109px 275.975px 317.023px " y="422.582px 422.582px 422.582px 422.582px ">EPOT</tspan></text>
                    </g>
                    <rect x="542.106" y="181.84" width="176.062" height="202.694" style="fill:none;stroke:white;stroke-width:1.25px;"/>
                </g>
                <g id="peek1" serif:id="peek" transform="matrix(0.549338,0,0,3.00567,77.657,-511.59)">
                    <rect x="0.687" y="263.306" width="441.453" height="24.583" style="fill:white;"/>
                </g>
            </g>
            <g id="blue-side-2" transform="matrix(1,0,0,-1,-4.3472,1601.74)">
                <g id="player-hatch2" serif:id="player-hatch" transform="matrix(1.15263,0,0,0.806735,-265.98,-44.0357)">
                    <rect x="542.106" y="181.84" width="176.062" height="202.694" style="fill:rgb(255,230,0);stroke:white;stroke-width:1.1px;"/>
                </g>
                <g id="player-cargo2" serif:id="player-cargo" transform="matrix(1.15263,0,0,0.434618,-265.98,185.823)">
                    <rect x="542.106" y="181.84" width="176.062" height="202.694" style="fill:rgb(255,111,0);stroke:white;stroke-width:1.3px;"/>
                </g>
                <g id="depot2" serif:id="depot" transform="matrix(1.21829,0,0,0.434618,-301.675,384.726)">
                    <rect x="542.106" y="181.84" width="176.062" height="202.694" style="fill:rgb(255,111,0);"/>
                    <g transform="matrix(0.946107,0,0,-2.30087,387.22,1216.49)">
                        <text x="165.798px" y="422.582px" style="font-family:'Arial-BoldMT', 'Arial', sans-serif;font-weight:700;font-size:46.761px;fill:rgb(242,242,242);">D<tspan x="204.244px 240.109px 275.975px 317.023px " y="422.582px 422.582px 422.582px 422.582px ">EPOT</tspan></text>
                    </g>
                    <rect x="542.106" y="181.84" width="176.062" height="202.694" style="fill:none;stroke:white;stroke-width:1.24px;"/>
                </g>
                <g id="peek2" serif:id="peek" transform="matrix(0.618697,0,0,3.00567,77.6093,-511.59)">
                    <rect x="0.687" y="263.306" width="441.453" height="24.583" style="fill:white;"/>
                </g>
            </g>
            <g id="red-side-2" transform="matrix(-1,0,0,-1,3599.1,1594.9)">
                <g id="player-hatch3" serif:id="player-hatch" transform="matrix(1.15263,0,0,0.806735,-295.979,-44.0357)">
                    <rect x="542.106" y="181.84" width="176.062" height="202.694" style="fill:rgb(255,230,0);stroke:white;stroke-width:1.1px;"/>
                </g>
                <g id="player-cargo3" serif:id="player-cargo" transform="matrix(1.15263,0,0,0.438519,-295.979,185.114)">
                    <rect x="542.106" y="181.84" width="176.062" height="202.694" style="fill:rgb(255,111,0);stroke:white;stroke-width:1.3px;"/>
                </g>
                <g id="depot3" serif:id="depot" transform="matrix(1.19773,0,0,0.438519,-318.806,375.012)">
                    <rect x="542.106" y="181.84" width="176.062" height="202.694" style="fill:rgb(255,111,0);"/>
                    <g transform="matrix(-0.962347,-0,-0,-2.2804,877.366,1209.09)">
                        <text x="165.798px" y="422.582px" style="font-family:'Arial-BoldMT', 'Arial', sans-serif;font-weight:700;font-size:46.761px;fill:rgb(242,242,242);">D<tspan x="204.244px 240.109px 275.975px 317.023px " y="422.582px 422.582px 422.582px 422.582px ">EPOT</tspan></text>
                    </g>
                    <rect x="542.106" y="181.84" width="176.062" height="202.694" style="fill:none;stroke:white;stroke-width:1.25px;"/>
                </g>
                <g id="peek3" serif:id="peek" transform="matrix(0.549338,0,0,3.00567,77.657,-511.59)">
                    <rect x="0.687" y="263.306" width="441.453" height="24.583" style="fill:white;"/>
                </g>
            </g>
            <g id="red-hab-1" transform="matrix(-1.58688,0,0,1.16247,4215.15,-126.235)">
                <rect x="730.623" y="552.385" width="135.168" height="496.688" style="fill:rgb(255,0,0);stroke:white;stroke-width:0.78px;"/>
            </g>
            <g id="red-hab-3" transform="matrix(-1.15263,0,0,0.899596,3897.88,403.898)">
                <rect x="544.532" y="552.385" width="186.091" height="165.711" style="fill:rgb(255,0,0);stroke:white;stroke-width:1.05px;"/>
            </g>
            <g id="red-hab-2" transform="matrix(-1.15263,0,0,0.899596,3897.88,62.3632)">
                <rect x="544.532" y="552.385" width="186.091" height="165.711" style="fill:rgb(255,0,0);stroke:white;stroke-width:1.05px;"/>
            </g>
            <g id="red-hab-4" transform="matrix(-1.15263,0,0,1.16143,3897.88,66.8006)">
                <rect x="544.532" y="552.385" width="186.091" height="165.711" style="fill:rgb(255,0,0);stroke:white;stroke-width:0.92px;"/>
            </g>
            <g transform="matrix(0.0367196,0,0,51.2847,2825.01,-13326.6)">
                <rect x="0.687" y="263.306" width="441.453" height="24.583" style="fill:rgb(255,0,0);stroke:white;stroke-width:0.03px;"/>
            </g>
            <g transform="matrix(0.0367196,0,0,51.2847,1831.51,-13326.6)">
                <rect x="0.687" y="263.306" width="441.453" height="24.583" style="fill:rgb(255,0,0);stroke:white;stroke-width:0.03px;"/>
            </g>
            <g transform="matrix(0.0367196,0,0,51.2847,1765.59,-13326.6)">
                <rect x="0.687" y="263.306" width="441.453" height="24.583" style="fill:rgb(0,0,255);stroke:white;stroke-width:0.03px;"/>
            </g>
            <g transform="matrix(0.0367196,0,0,51.2847,783.384,-13326.6)">
                <rect x="0.687" y="263.306" width="441.453" height="24.583" style="fill:rgb(0,0,255);stroke:white;stroke-width:0.03px;"/>
            </g>
            <g id="blue-cargo" transform="matrix(1.15263,0,0,1,196.424,-102.915)">
                <g id="cargo-miss">
                    <g transform="matrix(6.12323e-17,-1,1,6.12323e-17,247.804,2073.5)">
                        <path d="M1160.65,702.452C1044.45,702.452 950.257,796.649 950.257,912.846L1160.65,912.846L1160.65,702.452Z"/>
                    </g>
                    <g>
                        <g transform="matrix(1.2511,0,0,1.2511,-289.789,49.8431)">
                            <circle cx="1096.18" cy="761.385" r="39.778" style="fill:rgb(229,69,0);"/>
                        </g>
                        <g transform="matrix(1,0,0,1,-25.3811,73.5226)">
                            <path d="M1156.8,879.125L1057.26,978.657" style="fill:none;stroke:black;stroke-width:26.67px;"/>
                        </g>
                    </g>
                </g>
                <g id="hatch">
                    <g transform="matrix(-1.83697e-16,1,-1,-1.83697e-16,2073.5,-247.804)">
                        <path d="M1160.65,702.452C1044.45,702.452 950.257,796.649 950.257,912.846L1160.65,912.846L1160.65,702.452Z" style="stroke:rgb(0,0,255);stroke-width:17.33px;"/>
                    </g>
                    <g transform="matrix(1.2511,0,0,1.2511,-125.251,-118.967)">
                        <path d="M1096.18,721.608C1118.14,721.608 1135.96,739.431 1135.96,761.385C1135.96,783.339 1118.14,801.163 1096.18,801.163C1074.23,801.163 1056.41,783.339 1056.41,761.385C1056.41,739.431 1074.23,721.608 1096.18,721.608ZM1096.18,741.496C1107.16,741.496 1116.07,750.408 1116.07,761.385C1116.07,772.362 1107.16,781.274 1096.18,781.274C1085.21,781.274 1076.3,772.362 1076.3,761.385C1076.3,750.408 1085.21,741.496 1096.18,741.496Z" style="fill:rgb(255,232,22);"/>
                    </g>
                </g>
                <g id="hatch-miss">
                    <g transform="matrix(-1,-1.22465e-16,1.22465e-16,-1,2321.3,1825.69)">
                        <path d="M1160.65,702.452C1044.45,702.452 950.257,796.649 950.257,912.846L1160.65,912.846L1160.65,702.452Z"/>
                    </g>
                    <g>
                        <g transform="matrix(1.2511,0,0,1.2511,-125.251,49.8431)">
                            <path d="M1096.18,721.608C1118.14,721.608 1135.96,739.431 1135.96,761.385C1135.96,783.339 1118.14,801.163 1096.18,801.163C1074.23,801.163 1056.41,783.339 1056.41,761.385C1056.41,739.431 1074.23,721.608 1096.18,721.608ZM1096.18,741.496C1107.16,741.496 1116.07,750.408 1116.07,761.385C1116.07,772.362 1107.16,781.274 1096.18,781.274C1085.21,781.274 1076.3,772.362 1076.3,761.385C1076.3,750.408 1085.21,741.496 1096.18,741.496Z" style="fill:rgb(255,232,22);"/>
                        </g>
                        <g transform="matrix(1,0,0,1,139.937,73.5226)">
                            <path d="M1156.8,879.125L1057.26,978.657" style="fill:none;stroke:black;stroke-width:26.67px;"/>
                        </g>
                    </g>
                </g>
                <g id="cargo">
                    <path d="M1160.65,702.452C1044.45,702.452 950.257,796.649 950.257,912.846L1160.65,912.846L1160.65,702.452Z"/>
                    <g transform="matrix(1.2511,0,0,1.2511,-289.789,-118.967)">
                        <circle cx="1096.18" cy="761.385" r="39.778" style="fill:rgb(229,69,0);"/>
                    </g>
                </g>
                <circle cx="1160.65" cy="912.846" r="210.394" style="fill:none;stroke:rgb(0,0,255);stroke-width:17.33px;"/>
                <g transform="matrix(-1.83697e-16,1,-1,-1.83697e-16,2073.5,-247.804)">
                    <path d="M1160.65,702.452C1044.45,702.452 950.257,796.649 950.257,912.846L1160.65,912.846L1160.65,702.452Z" style="fill:none;stroke:rgb(0,0,255);stroke-width:17.33px;"/>
                </g>
                <g transform="matrix(-1,-1.22465e-16,1.22465e-16,-1,2321.3,1825.69)">
                    <path d="M1160.65,702.452C1044.45,702.452 950.257,796.649 950.257,912.846L1160.65,912.846L1160.65,702.452Z" style="fill:none;stroke:rgb(0,0,255);stroke-width:17.33px;"/>
                </g>
                <g transform="matrix(6.12323e-17,-1,1,6.12323e-17,247.804,2073.5)">
                    <path d="M1160.65,702.452C1044.45,702.452 950.257,796.649 950.257,912.846L1160.65,912.846L1160.65,702.452Z" style="fill:none;stroke:rgb(0,0,255);stroke-width:17.33px;"/>
                </g>
                <path d="M1160.65,702.452C1044.45,702.452 950.257,796.649 950.257,912.846L1160.65,912.846L1160.65,702.452Z" style="fill:none;stroke:rgb(0,0,255);stroke-width:17.33px;"/>
            </g>
            <g id="red-cargo" transform="matrix(1.15263,0,-0,1,746.226,-102.915)">
                <g id="cargo-miss1" serif:id="cargo-miss">
                    <g transform="matrix(6.12323e-17,-1,1,6.12323e-17,247.804,2073.5)">
                        <path d="M1160.65,702.452C1044.45,702.452 950.257,796.649 950.257,912.846L1160.65,912.846L1160.65,702.452Z"/>
                    </g>
                    <g>
                        <g transform="matrix(1.2511,0,0,1.2511,-289.789,49.8431)">
                            <circle cx="1096.18" cy="761.385" r="39.778" style="fill:rgb(229,69,0);"/>
                        </g>
                        <g transform="matrix(1,0,0,1,-25.3811,73.5226)">
                            <path d="M1156.8,879.125L1057.26,978.657" style="fill:none;stroke:black;stroke-width:26.67px;"/>
                        </g>
                    </g>
                </g>
                <g id="hatch1" serif:id="hatch">
                    <g transform="matrix(-1.83697e-16,1,-1,-1.83697e-16,2073.5,-247.804)">
                        <path d="M1160.65,702.452C1044.45,702.452 950.257,796.649 950.257,912.846L1160.65,912.846L1160.65,702.452Z" style="stroke:rgb(0,0,255);stroke-width:17.33px;"/>
                    </g>
                    <g transform="matrix(1.2511,0,0,1.2511,-125.251,-118.967)">
                        <path d="M1096.18,721.608C1118.14,721.608 1135.96,739.431 1135.96,761.385C1135.96,783.339 1118.14,801.163 1096.18,801.163C1074.23,801.163 1056.41,783.339 1056.41,761.385C1056.41,739.431 1074.23,721.608 1096.18,721.608ZM1096.18,741.496C1107.16,741.496 1116.07,750.408 1116.07,761.385C1116.07,772.362 1107.16,781.274 1096.18,781.274C1085.21,781.274 1076.3,772.362 1076.3,761.385C1076.3,750.408 1085.21,741.496 1096.18,741.496Z" style="fill:rgb(255,232,22);"/>
                    </g>
                </g>
                <g id="hatch-miss1" serif:id="hatch-miss">
                    <g transform="matrix(-1,-1.22465e-16,1.22465e-16,-1,2321.3,1825.69)">
                        <path d="M1160.65,702.452C1044.45,702.452 950.257,796.649 950.257,912.846L1160.65,912.846L1160.65,702.452Z"/>
                    </g>
                    <g>
                        <g transform="matrix(1.2511,0,0,1.2511,-125.251,49.8431)">
                            <path d="M1096.18,721.608C1118.14,721.608 1135.96,739.431 1135.96,761.385C1135.96,783.339 1118.14,801.163 1096.18,801.163C1074.23,801.163 1056.41,783.339 1056.41,761.385C1056.41,739.431 1074.23,721.608 1096.18,721.608ZM1096.18,741.496C1107.16,741.496 1116.07,750.408 1116.07,761.385C1116.07,772.362 1107.16,781.274 1096.18,781.274C1085.21,781.274 1076.3,772.362 1076.3,761.385C1076.3,750.408 1085.21,741.496 1096.18,741.496Z" style="fill:rgb(255,232,22);"/>
                        </g>
                        <g transform="matrix(1,0,0,1,139.937,73.5226)">
                            <path d="M1156.8,879.125L1057.26,978.657" style="fill:none;stroke:black;stroke-width:26.67px;"/>
                        </g>
                    </g>
                </g>
                <g id="cargo1" serif:id="cargo">
                    <path d="M1160.65,702.452C1044.45,702.452 950.257,796.649 950.257,912.846L1160.65,912.846L1160.65,702.452Z"/>
                    <g transform="matrix(1.2511,0,0,1.2511,-289.789,-118.967)">
                        <circle cx="1096.18" cy="761.385" r="39.778" style="fill:rgb(229,69,0);"/>
                    </g>
                </g>
                <circle cx="1160.65" cy="912.846" r="210.394" style="fill:none;stroke:rgb(255,0,0);stroke-width:17.33px;"/>
                <g transform="matrix(-1.83697e-16,1,-1,-1.83697e-16,2073.5,-247.804)">
                    <path d="M1160.65,702.452C1044.45,702.452 950.257,796.649 950.257,912.846L1160.65,912.846L1160.65,702.452Z" style="fill:none;stroke:rgb(255,0,0);stroke-width:17.33px;"/>
                </g>
                <g transform="matrix(-1,-1.22465e-16,1.22465e-16,-1,2321.3,1825.69)">
                    <path d="M1160.65,702.452C1044.45,702.452 950.257,796.649 950.257,912.846L1160.65,912.846L1160.65,702.452Z" style="fill:none;stroke:rgb(255,0,0);stroke-width:17.33px;"/>
                </g>
                <g transform="matrix(6.12323e-17,-1,1,6.12323e-17,247.804,2073.5)">
                    <path d="M1160.65,702.452C1044.45,702.452 950.257,796.649 950.257,912.846L1160.65,912.846L1160.65,702.452Z" style="fill:none;stroke:rgb(255,0,0);stroke-width:17.33px;"/>
                </g>
                <path d="M1160.65,702.452C1044.45,702.452 950.257,796.649 950.257,912.846L1160.65,912.846L1160.65,702.452Z" style="fill:none;stroke:rgb(255,0,0);stroke-width:17.33px;"/>
            </g>
            <g id="blue-rocket-2" transform="matrix(1.15263,0,0,1,-141.946,-523.702)">
                <g id="cargo-miss2" serif:id="cargo-miss">
                    <g transform="matrix(6.12323e-17,-1,1,6.12323e-17,247.804,2073.5)">
                        <path d="M1160.65,702.452C1044.45,702.452 950.257,796.649 950.257,912.846L1160.65,912.846L1160.65,702.452Z"/>
                    </g>
                    <g>
                        <g transform="matrix(1.2511,0,0,1.2511,-289.789,49.8431)">
                            <circle cx="1096.18" cy="761.385" r="39.778" style="fill:rgb(229,69,0);"/>
                        </g>
                        <g transform="matrix(1,0,0,1,-25.3811,73.5226)">
                            <path d="M1156.8,879.125L1057.26,978.657" style="fill:none;stroke:black;stroke-width:26.67px;"/>
                        </g>
                    </g>
                </g>
                <g id="hatch2" serif:id="hatch">
                    <g transform="matrix(-1.83697e-16,1,-1,-1.83697e-16,2073.5,-247.804)">
                        <path d="M1160.65,702.452C1044.45,702.452 950.257,796.649 950.257,912.846L1160.65,912.846L1160.65,702.452Z" style="stroke:rgb(0,0,255);stroke-width:17.33px;"/>
                    </g>
                    <g transform="matrix(1.2511,0,0,1.2511,-125.251,-118.967)">
                        <path d="M1096.18,721.608C1118.14,721.608 1135.96,739.431 1135.96,761.385C1135.96,783.339 1118.14,801.163 1096.18,801.163C1074.23,801.163 1056.41,783.339 1056.41,761.385C1056.41,739.431 1074.23,721.608 1096.18,721.608ZM1096.18,741.496C1107.16,741.496 1116.07,750.408 1116.07,761.385C1116.07,772.362 1107.16,781.274 1096.18,781.274C1085.21,781.274 1076.3,772.362 1076.3,761.385C1076.3,750.408 1085.21,741.496 1096.18,741.496Z" style="fill:rgb(255,232,22);"/>
                    </g>
                </g>
                <g id="hatch-miss2" serif:id="hatch-miss">
                    <g transform="matrix(-1,-1.22465e-16,1.22465e-16,-1,2321.3,1825.69)">
                        <path d="M1160.65,702.452C1044.45,702.452 950.257,796.649 950.257,912.846L1160.65,912.846L1160.65,702.452Z"/>
                    </g>
                    <g>
                        <g transform="matrix(1.2511,0,0,1.2511,-125.251,49.8431)">
                            <path d="M1096.18,721.608C1118.14,721.608 1135.96,739.431 1135.96,761.385C1135.96,783.339 1118.14,801.163 1096.18,801.163C1074.23,801.163 1056.41,783.339 1056.41,761.385C1056.41,739.431 1074.23,721.608 1096.18,721.608ZM1096.18,741.496C1107.16,741.496 1116.07,750.408 1116.07,761.385C1116.07,772.362 1107.16,781.274 1096.18,781.274C1085.21,781.274 1076.3,772.362 1076.3,761.385C1076.3,750.408 1085.21,741.496 1096.18,741.496Z" style="fill:rgb(255,232,22);"/>
                        </g>
                        <g transform="matrix(1,0,0,1,139.937,73.5226)">
                            <path d="M1156.8,879.125L1057.26,978.657" style="fill:none;stroke:black;stroke-width:26.67px;"/>
                        </g>
                    </g>
                </g>
                <g id="cargo2" serif:id="cargo">
                    <path d="M1160.65,702.452C1044.45,702.452 950.257,796.649 950.257,912.846L1160.65,912.846L1160.65,702.452Z"/>
                    <g transform="matrix(1.2511,0,0,1.2511,-289.789,-118.967)">
                        <circle cx="1096.18" cy="761.385" r="39.778" style="fill:rgb(229,69,0);"/>
                    </g>
                </g>
                <circle cx="1160.65" cy="912.846" r="210.394" style="fill:none;stroke:rgb(0,0,255);stroke-width:17.33px;"/>
                <g transform="matrix(-1.83697e-16,1,-1,-1.83697e-16,2073.5,-247.804)">
                    <path d="M1160.65,702.452C1044.45,702.452 950.257,796.649 950.257,912.846L1160.65,912.846L1160.65,702.452Z" style="fill:none;stroke:rgb(0,0,255);stroke-width:17.33px;"/>
                </g>
                <g transform="matrix(-1,-1.22465e-16,1.22465e-16,-1,2321.3,1825.69)">
                    <path d="M1160.65,702.452C1044.45,702.452 950.257,796.649 950.257,912.846L1160.65,912.846L1160.65,702.452Z" style="fill:none;stroke:rgb(0,0,255);stroke-width:17.33px;"/>
                </g>
                <g transform="matrix(6.12323e-17,-1,1,6.12323e-17,247.804,2073.5)">
                    <path d="M1160.65,702.452C1044.45,702.452 950.257,796.649 950.257,912.846L1160.65,912.846L1160.65,702.452Z" style="fill:none;stroke:rgb(0,0,255);stroke-width:17.33px;"/>
                </g>
                <path d="M1160.65,702.452C1044.45,702.452 950.257,796.649 950.257,912.846L1160.65,912.846L1160.65,702.452Z" style="fill:none;stroke:rgb(0,0,255);stroke-width:17.33px;"/>
            </g>
            <g id="red-rocket-2" transform="matrix(1.15263,0,-0,1,1086.9,-523.702)">
                <g id="cargo-miss3" serif:id="cargo-miss">
                    <g transform="matrix(6.12323e-17,-1,1,6.12323e-17,247.804,2073.5)">
                        <path d="M1160.65,702.452C1044.45,702.452 950.257,796.649 950.257,912.846L1160.65,912.846L1160.65,702.452Z"/>
                    </g>
                    <g>
                        <g transform="matrix(1.2511,0,0,1.2511,-289.789,49.8431)">
                            <circle cx="1096.18" cy="761.385" r="39.778" style="fill:rgb(229,69,0);"/>
                        </g>
                        <g transform="matrix(1,0,0,1,-25.3811,73.5226)">
                            <path d="M1156.8,879.125L1057.26,978.657" style="fill:none;stroke:black;stroke-width:26.67px;"/>
                        </g>
                    </g>
                </g>
                <g id="hatch3" serif:id="hatch">
                    <g transform="matrix(-1.83697e-16,1,-1,-1.83697e-16,2073.5,-247.804)">
                        <path d="M1160.65,702.452C1044.45,702.452 950.257,796.649 950.257,912.846L1160.65,912.846L1160.65,702.452Z" style="stroke:rgb(0,0,255);stroke-width:17.33px;"/>
                    </g>
                    <g transform="matrix(1.2511,0,0,1.2511,-125.251,-118.967)">
                        <path d="M1096.18,721.608C1118.14,721.608 1135.96,739.431 1135.96,761.385C1135.96,783.339 1118.14,801.163 1096.18,801.163C1074.23,801.163 1056.41,783.339 1056.41,761.385C1056.41,739.431 1074.23,721.608 1096.18,721.608ZM1096.18,741.496C1107.16,741.496 1116.07,750.408 1116.07,761.385C1116.07,772.362 1107.16,781.274 1096.18,781.274C1085.21,781.274 1076.3,772.362 1076.3,761.385C1076.3,750.408 1085.21,741.496 1096.18,741.496Z" style="fill:rgb(255,232,22);"/>
                    </g>
                </g>
                <g id="hatch-miss3" serif:id="hatch-miss">
                    <g transform="matrix(-1,-1.22465e-16,1.22465e-16,-1,2321.3,1825.69)">
                        <path d="M1160.65,702.452C1044.45,702.452 950.257,796.649 950.257,912.846L1160.65,912.846L1160.65,702.452Z"/>
                    </g>
                    <g>
                        <g transform="matrix(1.2511,0,0,1.2511,-125.251,49.8431)">
                            <path d="M1096.18,721.608C1118.14,721.608 1135.96,739.431 1135.96,761.385C1135.96,783.339 1118.14,801.163 1096.18,801.163C1074.23,801.163 1056.41,783.339 1056.41,761.385C1056.41,739.431 1074.23,721.608 1096.18,721.608ZM1096.18,741.496C1107.16,741.496 1116.07,750.408 1116.07,761.385C1116.07,772.362 1107.16,781.274 1096.18,781.274C1085.21,781.274 1076.3,772.362 1076.3,761.385C1076.3,750.408 1085.21,741.496 1096.18,741.496Z" style="fill:rgb(255,232,22);"/>
                        </g>
                        <g transform="matrix(1,0,0,1,139.937,73.5226)">
                            <path d="M1156.8,879.125L1057.26,978.657" style="fill:none;stroke:black;stroke-width:26.67px;"/>
                        </g>
                    </g>
                </g>
                <g id="cargo3" serif:id="cargo">
                    <path d="M1160.65,702.452C1044.45,702.452 950.257,796.649 950.257,912.846L1160.65,912.846L1160.65,702.452Z"/>
                    <g transform="matrix(1.2511,0,0,1.2511,-289.789,-118.967)">
                        <circle cx="1096.18" cy="761.385" r="39.778" style="fill:rgb(229,69,0);"/>
                    </g>
                </g>
                <circle cx="1160.65" cy="912.846" r="210.394" style="fill:none;stroke:rgb(255,0,0);stroke-width:17.33px;"/>
                <g transform="matrix(-1.83697e-16,1,-1,-1.83697e-16,2073.5,-247.804)">
                    <path d="M1160.65,702.452C1044.45,702.452 950.257,796.649 950.257,912.846L1160.65,912.846L1160.65,702.452Z" style="fill:none;stroke:rgb(255,0,0);stroke-width:17.33px;"/>
                </g>
                <g transform="matrix(-1,-1.22465e-16,1.22465e-16,-1,2321.3,1825.69)">
                    <path d="M1160.65,702.452C1044.45,702.452 950.257,796.649 950.257,912.846L1160.65,912.846L1160.65,702.452Z" style="fill:none;stroke:rgb(255,0,0);stroke-width:17.33px;"/>
                </g>
                <g transform="matrix(6.12323e-17,-1,1,6.12323e-17,247.804,2073.5)">
                    <path d="M1160.65,702.452C1044.45,702.452 950.257,796.649 950.257,912.846L1160.65,912.846L1160.65,702.452Z" style="fill:none;stroke:rgb(255,0,0);stroke-width:17.33px;"/>
                </g>
                <path d="M1160.65,702.452C1044.45,702.452 950.257,796.649 950.257,912.846L1160.65,912.846L1160.65,702.452Z" style="fill:none;stroke:rgb(255,0,0);stroke-width:17.33px;"/>
            </g>
            <g id="blue-rocket-1" transform="matrix(1.15263,0,0,1,-171.021,356.203)">
                <g id="cargo-miss4" serif:id="cargo-miss">
                    <g transform="matrix(6.12323e-17,-1,1,6.12323e-17,247.804,2073.5)">
                        <path d="M1160.65,702.452C1044.45,702.452 950.257,796.649 950.257,912.846L1160.65,912.846L1160.65,702.452Z"/>
                    </g>
                    <g>
                        <g transform="matrix(1.2511,0,0,1.2511,-289.789,49.8431)">
                            <circle cx="1096.18" cy="761.385" r="39.778" style="fill:rgb(229,69,0);"/>
                        </g>
                        <g transform="matrix(1,0,0,1,-25.3811,73.5226)">
                            <path d="M1156.8,879.125L1057.26,978.657" style="fill:none;stroke:black;stroke-width:26.67px;"/>
                        </g>
                    </g>
                </g>
                <g id="hatch4" serif:id="hatch">
                    <g transform="matrix(-1.83697e-16,1,-1,-1.83697e-16,2073.5,-247.804)">
                        <path d="M1160.65,702.452C1044.45,702.452 950.257,796.649 950.257,912.846L1160.65,912.846L1160.65,702.452Z" style="stroke:rgb(0,0,255);stroke-width:17.33px;"/>
                    </g>
                    <g transform="matrix(1.2511,0,0,1.2511,-125.251,-118.967)">
                        <path d="M1096.18,721.608C1118.14,721.608 1135.96,739.431 1135.96,761.385C1135.96,783.339 1118.14,801.163 1096.18,801.163C1074.23,801.163 1056.41,783.339 1056.41,761.385C1056.41,739.431 1074.23,721.608 1096.18,721.608ZM1096.18,741.496C1107.16,741.496 1116.07,750.408 1116.07,761.385C1116.07,772.362 1107.16,781.274 1096.18,781.274C1085.21,781.274 1076.3,772.362 1076.3,761.385C1076.3,750.408 1085.21,741.496 1096.18,741.496Z" style="fill:rgb(255,232,22);"/>
                    </g>
                </g>
                <g id="hatch-miss4" serif:id="hatch-miss">
                    <g transform="matrix(-1,-1.22465e-16,1.22465e-16,-1,2321.3,1825.69)">
                        <path d="M1160.65,702.452C1044.45,702.452 950.257,796.649 950.257,912.846L1160.65,912.846L1160.65,702.452Z"/>
                    </g>
                    <g>
                        <g transform="matrix(1.2511,0,0,1.2511,-125.251,49.8431)">
                            <path d="M1096.18,721.608C1118.14,721.608 1135.96,739.431 1135.96,761.385C1135.96,783.339 1118.14,801.163 1096.18,801.163C1074.23,801.163 1056.41,783.339 1056.41,761.385C1056.41,739.431 1074.23,721.608 1096.18,721.608ZM1096.18,741.496C1107.16,741.496 1116.07,750.408 1116.07,761.385C1116.07,772.362 1107.16,781.274 1096.18,781.274C1085.21,781.274 1076.3,772.362 1076.3,761.385C1076.3,750.408 1085.21,741.496 1096.18,741.496Z" style="fill:rgb(255,232,22);"/>
                        </g>
                        <g transform="matrix(1,0,0,1,139.937,73.5226)">
                            <path d="M1156.8,879.125L1057.26,978.657" style="fill:none;stroke:black;stroke-width:26.67px;"/>
                        </g>
                    </g>
                </g>
                <g id="cargo4" serif:id="cargo">
                    <path d="M1160.65,702.452C1044.45,702.452 950.257,796.649 950.257,912.846L1160.65,912.846L1160.65,702.452Z"/>
                    <g transform="matrix(1.2511,0,0,1.2511,-289.789,-118.967)">
                        <circle cx="1096.18" cy="761.385" r="39.778" style="fill:rgb(229,69,0);"/>
                    </g>
                </g>
                <circle cx="1160.65" cy="912.846" r="210.394" style="fill:none;stroke:rgb(0,0,255);stroke-width:17.33px;"/>
                <g transform="matrix(-1.83697e-16,1,-1,-1.83697e-16,2073.5,-247.804)">
                    <path d="M1160.65,702.452C1044.45,702.452 950.257,796.649 950.257,912.846L1160.65,912.846L1160.65,702.452Z" style="fill:none;stroke:rgb(0,0,255);stroke-width:17.33px;"/>
                </g>
                <g transform="matrix(-1,-1.22465e-16,1.22465e-16,-1,2321.3,1825.69)">
                    <path d="M1160.65,702.452C1044.45,702.452 950.257,796.649 950.257,912.846L1160.65,912.846L1160.65,702.452Z" style="fill:none;stroke:rgb(0,0,255);stroke-width:17.33px;"/>
                </g>
                <g transform="matrix(6.12323e-17,-1,1,6.12323e-17,247.804,2073.5)">
                    <path d="M1160.65,702.452C1044.45,702.452 950.257,796.649 950.257,912.846L1160.65,912.846L1160.65,702.452Z" style="fill:none;stroke:rgb(0,0,255);stroke-width:17.33px;"/>
                </g>
                <path d="M1160.65,702.452C1044.45,702.452 950.257,796.649 950.257,912.846L1160.65,912.846L1160.65,702.452Z" style="fill:none;stroke:rgb(0,0,255);stroke-width:17.33px;"/>
            </g>
            <g id="red-rocket-1" transform="matrix(1.15263,0,-0,1,1115.98,356.203)">
                <g id="cargo-miss5" serif:id="cargo-miss">
                    <g transform="matrix(6.12323e-17,-1,1,6.12323e-17,247.804,2073.5)">
                        <path d="M1160.65,702.452C1044.45,702.452 950.257,796.649 950.257,912.846L1160.65,912.846L1160.65,702.452Z"/>
                    </g>
                    <g>
                        <g transform="matrix(1.2511,0,0,1.2511,-289.789,49.8431)">
                            <circle cx="1096.18" cy="761.385" r="39.778" style="fill:rgb(229,69,0);"/>
                        </g>
                        <g transform="matrix(1,0,0,1,-25.3811,73.5226)">
                            <path d="M1156.8,879.125L1057.26,978.657" style="fill:none;stroke:black;stroke-width:26.67px;"/>
                        </g>
                    </g>
                </g>
                <g id="hatch5" serif:id="hatch">
                    <g transform="matrix(-1.83697e-16,1,-1,-1.83697e-16,2073.5,-247.804)">
                        <path d="M1160.65,702.452C1044.45,702.452 950.257,796.649 950.257,912.846L1160.65,912.846L1160.65,702.452Z" style="stroke:rgb(0,0,255);stroke-width:17.33px;"/>
                    </g>
                    <g transform="matrix(1.2511,0,0,1.2511,-125.251,-118.967)">
                        <path d="M1096.18,721.608C1118.14,721.608 1135.96,739.431 1135.96,761.385C1135.96,783.339 1118.14,801.163 1096.18,801.163C1074.23,801.163 1056.41,783.339 1056.41,761.385C1056.41,739.431 1074.23,721.608 1096.18,721.608ZM1096.18,741.496C1107.16,741.496 1116.07,750.408 1116.07,761.385C1116.07,772.362 1107.16,781.274 1096.18,781.274C1085.21,781.274 1076.3,772.362 1076.3,761.385C1076.3,750.408 1085.21,741.496 1096.18,741.496Z" style="fill:rgb(255,232,22);"/>
                    </g>
                </g>
                <g id="hatch-miss5" serif:id="hatch-miss">
                    <g transform="matrix(-1,-1.22465e-16,1.22465e-16,-1,2321.3,1825.69)">
                        <path d="M1160.65,702.452C1044.45,702.452 950.257,796.649 950.257,912.846L1160.65,912.846L1160.65,702.452Z"/>
                    </g>
                    <g>
                        <g transform="matrix(1.2511,0,0,1.2511,-125.251,49.8431)">
                            <path d="M1096.18,721.608C1118.14,721.608 1135.96,739.431 1135.96,761.385C1135.96,783.339 1118.14,801.163 1096.18,801.163C1074.23,801.163 1056.41,783.339 1056.41,761.385C1056.41,739.431 1074.23,721.608 1096.18,721.608ZM1096.18,741.496C1107.16,741.496 1116.07,750.408 1116.07,761.385C1116.07,772.362 1107.16,781.274 1096.18,781.274C1085.21,781.274 1076.3,772.362 1076.3,761.385C1076.3,750.408 1085.21,741.496 1096.18,741.496Z" style="fill:rgb(255,232,22);"/>
                        </g>
                        <g transform="matrix(1,0,0,1,139.937,73.5226)">
                            <path d="M1156.8,879.125L1057.26,978.657" style="fill:none;stroke:black;stroke-width:26.67px;"/>
                        </g>
                    </g>
                </g>
                <g id="cargo5" serif:id="cargo">
                    <path d="M1160.65,702.452C1044.45,702.452 950.257,796.649 950.257,912.846L1160.65,912.846L1160.65,702.452Z"/>
                    <g transform="matrix(1.2511,0,0,1.2511,-289.789,-118.967)">
                        <circle cx="1096.18" cy="761.385" r="39.778" style="fill:rgb(229,69,0);"/>
                    </g>
                </g>
                <circle cx="1160.65" cy="912.846" r="210.394" style="fill:none;stroke:rgb(255,0,0);stroke-width:17.33px;"/>
                <g transform="matrix(-1.83697e-16,1,-1,-1.83697e-16,2073.5,-247.804)">
                    <path d="M1160.65,702.452C1044.45,702.452 950.257,796.649 950.257,912.846L1160.65,912.846L1160.65,702.452Z" style="fill:none;stroke:rgb(255,0,0);stroke-width:17.33px;"/>
                </g>
                <g transform="matrix(-1,-1.22465e-16,1.22465e-16,-1,2321.3,1825.69)">
                    <path d="M1160.65,702.452C1044.45,702.452 950.257,796.649 950.257,912.846L1160.65,912.846L1160.65,702.452Z" style="fill:none;stroke:rgb(255,0,0);stroke-width:17.33px;"/>
                </g>
                <g transform="matrix(6.12323e-17,-1,1,6.12323e-17,247.804,2073.5)">
                    <path d="M1160.65,702.452C1044.45,702.452 950.257,796.649 950.257,912.846L1160.65,912.846L1160.65,702.452Z" style="fill:none;stroke:rgb(255,0,0);stroke-width:17.33px;"/>
                </g>
                <path d="M1160.65,702.452C1044.45,702.452 950.257,796.649 950.257,912.846L1160.65,912.846L1160.65,702.452Z" style="fill:none;stroke:rgb(255,0,0);stroke-width:17.33px;"/>
            </g>
            <g id="broke" transform="matrix(1.56806,0,0,1.56806,147.569,-894.304)">
                <g transform="matrix(0.73507,0,0,0.637732,-47.1164,631.434)">
                    <circle cx="1504.38" cy="1216.41" r="140.491" style="fill:rgb(22,22,22);fill-opacity:0.8;stroke:white;stroke-width:3.28px;"/>
                </g>
                <g transform="matrix(0.313995,0,0,0.272416,612.889,1078.08)">
                    <text x="1175.06px" y="1251.5px" style="font-family:'Arial-BoldMT', 'Arial', sans-serif;font-weight:700;font-size:121.338px;fill:rgb(242,242,242);">B<tspan x="1274.82px 1374.58px 1481.09px 1580.85px " y="1251.5px 1251.5px 1251.5px 1251.5px ">ROKE</tspan></text>
                </g>
            </g>
            <g id="undo">
                <g transform="matrix(1.15263,0,0,1,73.6873,95.821)">
                    <path d="M2339.89,669.326C2339.89,648.001 2322.58,630.689 2301.25,630.689L2049.92,630.689C2028.6,630.689 2011.29,648.001 2011.29,669.326L2011.29,746.599C2011.29,767.924 2028.6,785.236 2049.92,785.236L2301.25,785.236C2322.58,785.236 2339.89,767.924 2339.89,746.599L2339.89,669.326Z" style="fill:rgb(22,22,22);fill-opacity:0.8;stroke:white;stroke-width:3.28px;"/>
                </g>
                <g transform="matrix(0.922517,0,0,0.800357,688.703,242.889)">
                    <text x="1886.08px" y="736.972px" style="font-family:'Arial-BoldMT', 'Arial', sans-serif;font-weight:700;font-size:101.047px;fill:rgb(242,242,242);">U<tspan x="1969.16px 2052.24px 2135.31px " y="736.972px 736.972px 736.972px ">NDO</tspan></text>
                </g>
            </g>
            <g id="radial-menu" transform="matrix(1,0,0,1,-885.601,-88.0137)">
                <g id="high">
                    <g transform="matrix(-0.576316,0.866025,-0.998209,-0.5,2157.97,-186.826)">
                        <path d="M928.148,569.01L1252.75,746.167C1252.75,746.167 934.299,1168.56 522.694,746.167L846.831,569.01C846.831,569.01 879.574,622.365 928.148,574.728" style="fill-opacity:0.0117647;"/>
                    </g>
                    <g transform="matrix(2.38541,0,0,2.06953,-1021.5,-120.914)">
                        <path d="M891.379,147.255C857.69,147.255 830.379,174.566 830.379,208.255C830.379,218.963 833.198,229.482 838.552,238.755L870.862,220.101C868.783,216.499 867.688,212.414 867.688,208.255C867.688,195.171 878.295,184.564 891.379,184.564L891.379,147.255Z" style="fill:rgb(22,22,22);fill-opacity:0.8;stroke:rgb(13,40,242);stroke-width:1.58px;"/>
                    </g>
                    <g transform="matrix(1.15263,0.00238522,-0.00274928,0.999997,171.905,184.264)">
                        <g>
                            <g transform="matrix(0.136106,-0.990694,0.990694,0.136106,513.385,841.479)">
                                <text x="739.187px" y="126.37px" style="font-family:'Arial-BoldMT', 'Arial', sans-serif;font-weight:700;font-size:32px;fill:white;">H</text>
                            </g>
                            <g transform="matrix(0.355547,-0.934658,0.934658,0.355547,382.099,761.336)">
                                <text x="743.137px" y="103.586px" style="font-family:'Arial-BoldMT', 'Arial', sans-serif;font-weight:700;font-size:32px;fill:white;">I</text>
                            </g>
                            <g transform="matrix(0.558448,-0.82954,0.82954,0.558448,250.529,660.319)">
                                <text x="745.532px" y="94.827px" style="font-family:'Arial-BoldMT', 'Arial', sans-serif;font-weight:700;font-size:32px;fill:white;">G</text>
                            </g>
                            <g transform="matrix(0.791497,-0.611173,0.611173,0.791497,113.095,479.799)">
                                <text x="759.752px" y="74.145px" style="font-family:'Arial-BoldMT', 'Arial', sans-serif;font-weight:700;font-size:32px;fill:white;">H</text>
                            </g>
                        </g>
                    </g>
                </g>
                <g id="medium">
                    <g transform="matrix(-0.576316,-0.866025,0.998209,-0.5,1071.2,1350.89)">
                        <path d="M928.148,569.01L1252.75,746.167C1252.75,746.167 934.299,1168.56 522.694,746.167L846.831,569.01C846.831,569.01 879.574,622.365 928.148,574.728" style="fill-opacity:0.0117647;"/>
                    </g>
                    <g id="medium1" serif:id="medium" transform="matrix(2.38541,0,0,2.06953,-1021.5,-120.914)">
                        <path d="M944.207,238.755C949.561,229.482 952.379,218.963 952.379,208.255C952.379,174.566 925.069,147.255 891.379,147.255L891.379,184.603C904.442,184.603 915.031,195.192 915.031,208.255C915.031,212.407 913.938,216.485 911.862,220.081L944.207,238.755Z" style="fill:rgb(22,22,22);fill-opacity:0.8;stroke:rgb(13,40,242);stroke-width:1.58px;"/>
                    </g>
                    <g transform="matrix(-0.651649,0.824846,-0.950744,-0.565358,1754.82,-289.092)">
                        <g>
                            <g transform="matrix(-0.237523,-0.971382,0.971382,-0.237523,769.067,919.76)">
                                <text x="745.512px" y="158.044px" style="font-family:'Arial-BoldMT', 'Arial', sans-serif;font-weight:700;font-size:32px;fill:white;">M</text>
                            </g>
                            <g transform="matrix(0.0670131,-0.997752,0.997752,0.0670131,558.316,860.974)">
                                <text x="739.528px" y="131.951px" style="font-family:'Arial-BoldMT', 'Arial', sans-serif;font-weight:700;font-size:32px;fill:white;">E</text>
                            </g>
                            <g transform="matrix(0.34321,-0.939259,0.939259,0.34321,382.746,768.315)">
                                <text x="740.746px" y="110.48px" style="font-family:'Arial-BoldMT', 'Arial', sans-serif;font-weight:700;font-size:32px;fill:white;">D</text>
                            </g>
                            <g transform="matrix(0.527363,-0.84964,0.84964,0.527363,278.559,678.721)">
                                <text x="749.333px" y="88.984px" style="font-family:'Arial-BoldMT', 'Arial', sans-serif;font-weight:700;font-size:32px;fill:white;">I</text>
                            </g>
                            <g transform="matrix(0.692854,-0.721078,0.721078,0.692854,173.049,568.161)">
                                <text x="753.453px" y="80.949px" style="font-family:'Arial-BoldMT', 'Arial', sans-serif;font-weight:700;font-size:32px;fill:white;">U</text>
                            </g>
                            <g transform="matrix(0.896845,-0.442346,0.442346,0.896845,51.1307,346.97)">
                                <text x="769.495px" y="63.857px" style="font-family:'Arial-BoldMT', 'Arial', sans-serif;font-weight:700;font-size:32px;fill:white;">M</text>
                            </g>
                        </g>
                    </g>
                </g>
                <g id="low">
                    <g transform="matrix(1.15263,0,0,1,79.625,-234.505)">
                        <path d="M928.148,569.01L1252.75,746.167C1252.75,746.167 934.299,1168.56 522.694,746.167L846.831,569.01C846.831,569.01 879.574,622.365 928.148,574.728" style="fill-opacity:0.00784314;"/>
                    </g>
                    <g transform="matrix(2.39974,0,0,2.08197,-1034.28,-123.664)">
                        <path d="M838.552,238.755C849.448,257.628 869.586,269.255 891.379,269.255C913.172,269.255 933.31,257.628 944.207,238.755L911.835,220.065C907.616,227.373 899.818,231.875 891.379,231.875C882.94,231.875 875.143,227.373 870.923,220.065L838.552,238.755Z" style="fill:rgb(22,22,22);fill-opacity:0.8;stroke:rgb(13,40,242);stroke-width:1.57px;"/>
                    </g>
                    <g transform="matrix(-0.551618,-0.878048,1.01207,-0.478573,1420.4,1113.14)">
                        <g>
                            <g transform="matrix(-0.727644,0.685955,-0.685955,-0.727644,1392.45,-414.671)">
                                <text x="778.549px" y="69.099px" style="font-family:'Arial-BoldMT', 'Arial', sans-serif;font-weight:700;font-size:32px;fill:white;">L</text>
                            </g>
                            <g transform="matrix(-0.531609,0.84699,-0.84699,-0.531609,1238.73,-515.414)">
                                <text x="761.881px" y="84.807px" style="font-family:'Arial-BoldMT', 'Arial', sans-serif;font-weight:700;font-size:32px;fill:white;">O</text>
                            </g>
                            <g transform="matrix(-0.246749,0.96908,-0.96908,-0.246749,1036.72,-588.117)">
                                <text x="746.925px" y="108.853px" style="font-family:'Arial-BoldMT', 'Arial', sans-serif;font-weight:700;font-size:32px;fill:white;">W</text>
                            </g>
                        </g>
                    </g>
                </g>
            </g>
            <g id="field" transform="matrix(-1.56806,-1.66603e-16,2.21342e-16,-1.56806,3467.81,1606.6)">
                <g id="drop-cargo">
                    <g id="drop" transform="matrix(0.574954,-0.866707,0.998994,0.498818,-133.561,1188.14)">
                        <path d="M905.527,789.86C937.048,771.661 956.466,738.029 956.466,701.631C956.466,683.748 951.758,666.179 942.817,650.692L854.588,701.631L905.527,789.86Z" style="fill:rgb(22,22,22);fill-opacity:0.8;stroke:white;stroke-width:2.09px;"/>
                    </g>
                    <g transform="matrix(-0.48655,-5.16948e-17,5.95851e-17,-0.42212,1445.53,999.092)">
                        <text x="592.03px" y="597.663px" style="font-family:'Arial-BoldMT', 'Arial', sans-serif;font-weight:700;font-size:56.877px;fill:rgb(242,242,242);">D<tspan x="638.793px 685.555px 735.484px " y="597.663px 597.663px 597.663px ">ROP</tspan></text>
                    </g>
                </g>
                <g id="drop-hatch" transform="matrix(-0.00289686,-0.867576,1.15263,-0.00289686,142.614,1718.28)">
                    <g id="drop1" serif:id="drop" transform="matrix(0.574954,-0.866707,0.998994,0.498818,-133.561,1188.14)">
                        <path d="M905.527,789.86C937.048,771.661 956.466,738.029 956.466,701.631C956.466,683.748 951.758,666.179 942.817,650.692L854.588,701.631L905.527,789.86Z" style="fill:rgb(22,22,22);fill-opacity:0.8;stroke:white;stroke-width:2.09px;"/>
                    </g>
                    <g transform="matrix(0.00114119,-0.422119,0.486548,0.000990071,825.402,1042.94)">
                        <text x="592.03px" y="597.663px" style="font-family:'Arial-BoldMT', 'Arial', sans-serif;font-weight:700;font-size:56.877px;fill:rgb(242,242,242);">D<tspan x="638.793px 685.555px 735.484px " y="597.663px 597.663px 597.663px ">ROP</tspan></text>
                    </g>
                </g>
                <g id="field-hatch">
                    <g id="_-Pie-" serif:id="(Pie)" transform="matrix(0.574954,-0.866707,0.998994,0.498818,-133.561,1188.14)">
                        <path d="M803.648,613.402C772.127,631.601 752.709,665.234 752.709,701.631C752.709,719.515 757.417,737.083 766.358,752.57L854.588,701.631L803.648,613.402Z" style="fill:rgb(22,22,22);fill-opacity:0.8;stroke:white;stroke-width:2.09px;"/>
                    </g>
                    <g transform="matrix(0.545161,0,0,0.472971,402.472,477.869)">
                        <path d="M1096.18,721.608C1118.14,721.608 1135.96,739.431 1135.96,761.385C1135.96,783.339 1118.14,801.163 1096.18,801.163C1074.23,801.163 1056.41,783.339 1056.41,761.385C1056.41,739.431 1074.23,721.608 1096.18,721.608ZM1096.18,741.496C1107.16,741.496 1116.07,750.408 1116.07,761.385C1116.07,772.362 1107.16,781.274 1096.18,781.274C1085.21,781.274 1076.3,772.362 1076.3,761.385C1076.3,750.408 1085.21,741.496 1096.18,741.496Z" style="fill:rgb(255,232,22);"/>
                    </g>
                </g>
                <g id="field-cargo">
                    <g id="_-Pie-1" serif:id="(Pie)" transform="matrix(0.574954,-0.866707,0.998994,0.498818,-133.561,1188.14)">
                        <path d="M766.358,752.57C784.557,784.091 818.19,803.509 854.588,803.509C872.471,803.509 890.039,798.802 905.527,789.86L854.588,701.631L766.358,752.57Z" style="fill:rgb(22,22,22);fill-opacity:0.8;stroke:white;stroke-width:2.09px;"/>
                    </g>
                    <g transform="matrix(0.545161,0,0,0.472971,514.072,477.869)">
                        <circle cx="1096.18" cy="761.385" r="39.778" style="fill:rgb(229,69,0);"/>
                    </g>
                </g>
            </g>
            <g id="autoMove">
                <g transform="matrix(1.15263,0,-2.84146e-32,1,73.6873,95.821)">
                    <path d="M992.177,664.339C992.177,646.113 977.379,631.315 959.153,631.315L731.769,631.315C713.543,631.315 698.745,646.113 698.745,664.339L698.745,730.388C698.745,748.614 713.543,763.412 731.769,763.412L959.153,763.412C977.379,763.412 992.177,748.614 992.177,730.388L992.177,664.339Z" style="fill:rgb(22,22,22);fill-opacity:0.8;stroke:white;stroke-width:3.28px;"/>
                </g>
                <g transform="matrix(0.562765,0,0,0.488243,638.883,438.266)">
                    <text x="537.229px" y="716.177px" style="font-family:'Arial-BoldMT', 'Arial', sans-serif;font-weight:700;font-size:67.767px;fill:rgb(242,242,242);">M<tspan x="600.456px 659.944px 711.921px 763.898px 819.614px 845.218px 870.823px " y="716.177px 716.177px 716.177px 716.177px 716.177px 716.177px 716.177px ">OVED IN</tspan></text>
                    <text x="483.644px" y="786.161px" style="font-family:'Arial-BoldMT', 'Arial', sans-serif;font-weight:700;font-size:67.767px;fill:rgb(242,242,242);">S<tspan x="535.621px 591.337px 647.053px 702.768px 754.745px 801.692px 861.18px 916.896px " y="786.161px 786.161px 786.161px 786.161px 786.161px 786.161px 786.161px 786.161px ">ANDSTORM</tspan></text>
                </g>
            </g>
            <g transform="matrix(0.646448,0,0,0.560845,190.344,663.872)">
                <text x="-129.943px" y="1331.7px" style="font-family:'Arial-BoldMT', 'Arial', sans-serif;font-weight:700;font-size:71.104px;fill:rgb(242,242,242);">P<tspan x="-75.407px -24.864px 27.069px 81.605px 136.141px " y="1331.7px 1331.7px 1331.7px 1331.7px 1331.7px ">LAYER</tspan></text>
                <text x="-143.307px" y="1405.13px" style="font-family:'Arial-BoldMT', 'Arial', sans-serif;font-weight:700;font-size:71.104px;fill:rgb(242,242,242);">S<tspan x="-88.77px -43.504px 9.678px 60.222px 87.087px 149.505px " y="1405.13px 1405.13px 1405.13px 1405.13px 1405.13px 1405.13px ">TATION</tspan></text>
            </g>
            <g transform="matrix(0.646448,0,0,0.560845,3373.71,663.872)">
                <text x="-129.943px" y="1331.7px" style="font-family:'Arial-BoldMT', 'Arial', sans-serif;font-weight:700;font-size:71.104px;fill:rgb(242,242,242);">P<tspan x="-75.407px -24.864px 27.069px 81.605px 136.141px " y="1331.7px 1331.7px 1331.7px 1331.7px 1331.7px ">LAYER</tspan></text>
                <text x="-143.307px" y="1405.13px" style="font-family:'Arial-BoldMT', 'Arial', sans-serif;font-weight:700;font-size:71.104px;fill:rgb(242,242,242);">S<tspan x="-88.77px -43.504px 9.678px 60.222px 87.087px 149.505px " y="1405.13px 1405.13px 1405.13px 1405.13px 1405.13px 1405.13px ">TATION</tspan></text>
            </g>
            <g transform="matrix(0.646448,0,0,0.560845,190.344,-562.95)">
                <text x="-129.943px" y="1331.7px" style="font-family:'Arial-BoldMT', 'Arial', sans-serif;font-weight:700;font-size:71.104px;fill:rgb(242,242,242);">P<tspan x="-75.407px -24.864px 27.069px 81.605px 136.141px " y="1331.7px 1331.7px 1331.7px 1331.7px 1331.7px ">LAYER</tspan></text>
                <text x="-143.307px" y="1405.13px" style="font-family:'Arial-BoldMT', 'Arial', sans-serif;font-weight:700;font-size:71.104px;fill:rgb(242,242,242);">S<tspan x="-88.77px -43.504px 9.678px 60.222px 87.087px 149.505px " y="1405.13px 1405.13px 1405.13px 1405.13px 1405.13px 1405.13px ">TATION</tspan></text>
            </g>
            <g transform="matrix(0.646448,0,0,0.560845,3373.71,-562.95)">
                <text x="-129.943px" y="1331.7px" style="font-family:'Arial-BoldMT', 'Arial', sans-serif;font-weight:700;font-size:71.104px;fill:rgb(242,242,242);">P<tspan x="-75.407px -24.864px 27.069px 81.605px 136.141px " y="1331.7px 1331.7px 1331.7px 1331.7px 1331.7px ">LAYER</tspan></text>
                <text x="-143.307px" y="1405.13px" style="font-family:'Arial-BoldMT', 'Arial', sans-serif;font-weight:700;font-size:71.104px;fill:rgb(242,242,242);">S<tspan x="-88.77px -43.504px 9.678px 60.222px 87.087px 149.505px " y="1405.13px 1405.13px 1405.13px 1405.13px 1405.13px 1405.13px ">TATION</tspan></text>
            </g>
        </g>
    </g>
</svg>
